<svg xmlns="http://www.w3.org/2000/svg">
    <symbol id="download" viewBox="0 0 24 24">
        <path d="M3,12.3v7a2,2,0,0,0,2,2H19a2,2,0,0,0,2-2v-7" fill="none" stroke-linecap="round" stroke-linejoin="round" stroke-width="2"/>
        <polyline fill="none" id="Right-2" points="7.9 12.3 12 16.3 16.1 12.3" stroke-linecap="round" stroke-linejoin="round" stroke-width="2"/>
        <line fill="none" stroke-linecap="round" stroke-linejoin="round" stroke-width="2" x1="12" x2="12" y1="2.7" y2="14.2"/>
    </symbol>

    <symbol id="search" viewBox="0 0 128 128">
        <path d="M 52.349609 14.400391 C 42.624609 14.400391 32.9 18.1 25.5 25.5 C 10.7 40.3 10.7 64.399219 25.5 79.199219 C 32.9 86.599219 42.600391 90.300781 52.400391 90.300781 C 62.200391 90.300781 71.900781 86.599219 79.300781 79.199219 C 94.000781 64.399219 93.999219 40.3 79.199219 25.5 C 71.799219 18.1 62.074609 14.400391 52.349609 14.400391 z M 52.300781 20.300781 C 60.500781 20.300781 68.700391 23.399219 74.900391 29.699219 C 87.400391 42.199219 87.4 62.5 75 75 C 62.5 87.5 42.199219 87.5 29.699219 75 C 17.199219 62.5 17.199219 42.199219 29.699219 29.699219 C 35.899219 23.499219 44.100781 20.300781 52.300781 20.300781 z M 52.300781 26.300781 C 45.400781 26.300781 38.9 29 34 34 C 29.3 38.7 26.700391 44.800391 26.400391 51.400391 C 26.300391 53.100391 27.600781 54.4 29.300781 54.5 L 29.400391 54.5 C 31.000391 54.5 32.300391 53.199609 32.400391 51.599609 C 32.600391 46.499609 34.699219 41.799219 38.199219 38.199219 C 41.999219 34.399219 47.000781 32.300781 52.300781 32.300781 C 54.000781 32.300781 55.300781 31.000781 55.300781 29.300781 C 55.300781 27.600781 54.000781 26.300781 52.300781 26.300781 z M 35 64 A 3 3 0 0 0 32 67 A 3 3 0 0 0 35 70 A 3 3 0 0 0 38 67 A 3 3 0 0 0 35 64 z M 83.363281 80.5 C 82.600781 80.5 81.850781 80.800391 81.300781 81.400391 C 80.100781 82.600391 80.100781 84.499609 81.300781 85.599609 L 83.800781 88.099609 C 83.200781 89.299609 82.900391 90.6 82.900391 92 C 82.900391 94.4 83.8 96.700391 85.5 98.400391 L 98.300781 111 C 100.10078 112.8 102.39922 113.69922 104.69922 113.69922 C 106.99922 113.69922 109.29961 112.79961 111.09961 111.09961 C 114.59961 107.59961 114.59961 101.90039 111.09961 98.400391 L 98.300781 85.599609 C 96.600781 83.899609 94.300391 83 91.900391 83 C 90.500391 83 89.2 83.300391 88 83.900391 L 85.5 81.400391 C 84.9 80.800391 84.125781 80.5 83.363281 80.5 z M 91.900391 88.900391 C 92.700391 88.900391 93.5 89.200781 94 89.800781 L 106.69922 102.5 C 107.89922 103.7 107.89922 105.59922 106.69922 106.69922 C 105.49922 107.89922 103.6 107.89922 102.5 106.69922 L 89.800781 94.099609 C 89.200781 93.499609 88.900391 92.700391 88.900391 91.900391 C 88.900391 91.100391 89.200781 90.300781 89.800781 89.800781 C 90.400781 89.200781 91.100391 88.900391 91.900391 88.900391 z"/>
    </symbol>

    <symbol id="camera" viewBox="0 0 24 24" fill="none">
        <path d="M18.3944 7C18.9574 7 19.2389 7 19.4711 7.05628C20.199 7.2327 20.7673 7.801 20.9437 8.52887C21 8.76107 21 9.04256 21 9.60555L21 16C21 17.8856 21 18.8284 20.4142 19.4142C19.8284 20 18.8856 20 17 20L16 20L8 20L7 20C5.11438 20 4.17157 20 3.58579 19.4142C3 18.8284 3 17.8856 3 16L3 9.60555C3 9.04256 3 8.76107 3.05628 8.52887C3.23271 7.801 3.80101 7.2327 4.52887 7.05628C4.76107 7 5.04257 7 5.60555 7V7C5.92098 7 6.07869 7 6.2261 6.9779C6.68235 6.90952 7.10092 6.6855 7.4109 6.34382C7.51105 6.23342 7.59853 6.1022 7.7735 5.83975L8 5.5C8.39637 4.90544 8.59456 4.60816 8.86549 4.40367C9.03094 4.27879 9.2148 4.18039 9.41048 4.112C9.73092 4 10.0882 4 10.8028 4L13.1972 4C13.9118 4 14.2691 4 14.5895 4.112C14.7852 4.18039 14.9691 4.27879 15.1345 4.40367C15.4054 4.60816 15.6036 4.90544 16 5.5L16.2265 5.83975C16.4015 6.1022 16.4889 6.23342 16.5891 6.34382C16.8991 6.6855 17.3177 6.90952 17.7739 6.9779C17.9213 7 18.079 7 18.3944 7V7Z" stroke-width="2" stroke-linejoin="round"/>
        <path d="M15 13C15 14.6569 13.6569 16 12 16C10.3431 16 9 14.6569 9 13C9 11.3431 10.3431 10 12 10C13.6569 10 15 11.3431 15 13Z" stroke-width="2"/>
    </symbol>

    <symbol id="close" viewBox="0 0 24 24">
        <path fill-rule="evenodd"  stroke="none" clip-rule="evenodd" d="M5.29289 5.29289C5.68342 4.90237 6.31658 4.90237 6.70711 5.29289L12 10.5858L17.2929 5.29289C17.6834 4.90237 18.3166 4.90237 18.7071 5.29289C19.0976 5.68342 19.0976 6.31658 18.7071 6.70711L13.4142 12L18.7071 17.2929C19.0976 17.6834 19.0976 18.3166 18.7071 18.7071C18.3166 19.0976 17.6834 19.0976 17.2929 18.7071L12 13.4142L6.70711 18.7071C6.31658 19.0976 5.68342 19.0976 5.29289 18.7071C4.90237 18.3166 4.90237 17.6834 5.29289 17.2929L10.5858 12L5.29289 6.70711C4.90237 6.31658 4.90237 5.68342 5.29289 5.29289Z" />
    </symbol>
</svg>